# xmcd CD database file
#
# Track frame offsets:
#	150
#	21388
#	32432
#	48926
#	61335
#	80981
#	100143
#	119719
#	139577
#	155147
#	168913
#	189011
#	205839
#	223740
#	239101
#	258493
#	277010
#	290495
#	310650
#	329802
#
# Disc length: 4659 seconds
#
# Revision: 0
# Processed by: cddbd v1.5.2PL0 Copyright (c) Steve Scherf et al.
# Submitted via: CDex 1.79
#
DISCID=36123114
DTITLE=Various Artist - Ultimate Salsa 3
DYEAR=1900
DGENRE=Salsa
TTITLE0=Fania All Stars - estrellas de fania
TTITLE1=Celia Cruz - Rumbanacoa
TTITLE2=Ismael Rivera - Bilongo
TTITLE3=Tito Puente - Arrollando
TTITLE4=Willie Colon - Abuelita
TTITLE5=Ray Barretto - Indestructible
TTITLE6=Ruben Blades - Pedro Navaja
TTITLE7=Pete Conde Rodriguez - Micaela
TTITLE8=La  lupe - A benny more
TTITLE9=Mongo Santamaria - Last tango in paris
TTITLE10=Tito Puente and Celia Cruz - Ay mi Cuba
TTITLE11=Ricardo ray and Bobby Cruz - Sonido Bestial
TTITLE12=Orchestra Harlow - El Malecon
TTITLE13=Chacon - Loco Boogaloo
TTITLE14=Sonora Poncena - A comer lechon
TTITLE15=Eduardo Vals - Cafe
TTITLE16=Fania All Stars - Sandunguera
TTITLE17=Ray Barretto - Quitate la mascara
TTITLE18=Sonora Del Sol - El Carretero
TTITLE19=Willie Colon and Ruben Blades - Siembra
EXTD=
EXTT0=
EXTT1=
EXTT2=
EXTT3=
EXTT4=
EXTT5=
EXTT6=
EXTT7=
EXTT8=
EXTT9=
EXTT10=
EXTT11=
EXTT12=
EXTT13=
EXTT14=
EXTT15=
EXTT16=
EXTT17=
EXTT18=
EXTT19=
PLAYORDER=
